<?xml version="1.0" encoding="UTF-8"?>
<!DOCTYPE svg PUBLIC "-//W3C//DTD SVG 1.1//EN" "http://www.w3.org/Graphics/SVG/1.1/DTD/svg11.dtd">
<!-- Creator: CorelDRAW 2019 (64-Bit) -->
<svg xmlns="http://www.w3.org/2000/svg" xml:space="preserve" width="11.6968in" height="2.04552in" version="1.1" style="shape-rendering:geometricPrecision; text-rendering:geometricPrecision; image-rendering:optimizeQuality; fill-rule:evenodd; clip-rule:evenodd"
viewBox="0 0 11361.51 1986.89"
 xmlns:xlink="http://www.w3.org/1999/xlink">
 <defs>
  <style type="text/css">
   <![CDATA[
    .fil2 {fill:#255A89}
    .fil1 {fill:#255A89;fill-rule:nonzero}
    .fil0 {fill:#389AE0;fill-rule:nonzero}
   ]]>
  </style>
 </defs>
 <g id="Layer_x0020_1">
  <metadata id="CorelCorpID_0Corel-Layer"/>
  <path class="fil0" d="M162.09 1945.37l0 -808.64 -162.09 0 0 -268.82 162.09 0 0 -221.1c0,-125.3 34.24,-219.64 102.36,-282.66 68.48,-63.38 170.83,-95.07 306.7,-95.07 19.3,0 42.25,1.82 68.84,5.46 26.59,3.28 55.37,8.38 85.96,14.57l0 290.31c-17.12,-6.55 -32.78,-11.66 -47.35,-14.93 -14.94,-3.28 -28.05,-4.73 -40.07,-4.73 -35.69,0 -61.92,10.56 -78.31,32.05 -16.39,21.49 -24.4,56.09 -24.4,104.17l0 171.93 190.14 0 0 268.82 -190.14 0 0 808.64 -373.72 0z"/>
  <path id="1" class="fil0" d="M1542.42 1405.55c0,-84.14 -22.22,-150.43 -67.02,-199.61 -44.8,-49.17 -105.99,-73.58 -183.58,-73.58 -77.58,0 -138.42,24.41 -182.85,73.22 -44.44,48.44 -66.66,115.47 -66.66,199.97 0,83.78 22.22,150.07 67.02,198.52 44.8,48.44 105.63,72.49 182.49,72.49 77.59,0 138.78,-24.04 183.58,-72.49 44.8,-48.44 67.02,-114.74 67.02,-198.52zm334.75 -537.63l0 1077.45 -349.68 0 0 -174.84c-49.9,74.67 -105.63,129.31 -167.92,164.28 -62.29,34.6 -135.5,52.09 -219.28,52.09 -143.88,0 -258.62,-52.45 -344.94,-157.35 -85.96,-104.9 -128.95,-245.87 -128.95,-422.17 0,-175.93 45.17,-315.44 135.14,-419.25 89.97,-103.45 210.9,-155.17 363.16,-155.17 81.23,0 151.17,17.48 209.81,52.09 58.64,34.6 108.91,87.78 150.8,159.9l0 -177.02 351.86 0z"/>
  <path id="2" class="fil0" d="M2766.48 1221.97c-37.16,-32.78 -72.49,-56.46 -106.73,-71.39 -34.24,-14.93 -69.94,-22.59 -107.82,-22.59 -75.4,0 -135.5,24.77 -179.94,74.67 -44.44,49.9 -66.66,117.29 -66.66,202.89 0,82.32 23.31,148.25 69.57,197.42 46.26,49.17 108.18,73.58 186.5,73.58 38.61,0 74.67,-7.65 108.54,-22.95 33.88,-15.3 65.93,-38.98 96.53,-71.03l0 329.65c-45.53,25.5 -91.06,44.44 -136.6,56.46 -45.53,12.02 -92.52,18.21 -140.97,18.21 -165.73,0 -300.14,-53.18 -402.86,-159.54 -103.08,-106.36 -154.44,-246.6 -154.44,-419.98 0,-168.65 52.45,-306.7 157.36,-413.79 105.27,-107.09 239.68,-160.63 404.32,-160.63 54.64,0 104.18,5.46 148.25,16.03 44.07,10.56 85.96,27.68 124.94,51.36l0 321.63z"/>
  <path id="3" class="fil1" d="M3333.62 531.35c0,-57.55 20.4,-106.36 61.56,-146.79 40.8,-40.43 89.97,-60.83 147.89,-60.83 59.74,0 109.64,20.03 149.7,59.74 40.43,39.7 60.47,88.88 60.47,147.88 0,59.01 -20.4,108.91 -61.56,150.07 -40.8,41.16 -90.33,61.92 -148.61,61.92 -57.19,0 -106.36,-21.13 -147.52,-63.02 -41.16,-41.89 -61.92,-91.42 -61.92,-148.98zm19.67 1414.02l0 -1077.45 380.28 0 0 1077.45 -380.28 0z"/>
  <path id="4" class="fil1" d="M3853.22 1945.37l0 -1077.45 348.22 0 0 218.55c50.26,-87.78 108.54,-151.89 174.84,-192.69 65.93,-40.43 145.33,-60.83 237.49,-60.83 69.94,0 131.86,11.29 186.13,33.51 54.27,22.58 98.71,54.64 132.59,96.89 28.78,36.06 48.81,80.5 60.83,132.22 12.02,52.09 18.21,129.67 18.21,232.76l0 617.04 -380.27 0 0 -577.34c0,-86.33 -14.21,-148.61 -42.25,-187.95 -28.05,-38.98 -72.85,-58.64 -134.77,-58.64 -79.04,0 -136.6,29.14 -173.02,87.42 -36.06,58.28 -54.27,152.99 -54.27,284.12l0 452.4 -373.72 0z"/>
  <path id="5" class="fil1" d="M5008.44 1855.76l79.04 -290.67c55.73,48.44 116.56,85.6 183.22,111.83 66.66,25.86 133.68,38.98 201.07,38.98 47.71,0 84.14,-7.65 108.91,-22.95 25.14,-15.3 37.52,-37.52 37.52,-66.66 0,-47.72 -50.26,-83.41 -150.8,-107.09 -32.78,-7.65 -59.37,-14.57 -79.04,-20.03 -114.01,-31.33 -196.33,-72.49 -248.06,-123.48 -51.36,-50.63 -77.22,-116.92 -77.22,-197.79 0,-104.9 39.34,-188.32 118.02,-250.97 78.68,-62.65 185.04,-93.97 319.45,-93.97 69.21,0 139.51,8.02 210.9,24.04 71.39,16.02 144.61,40.79 219.28,74.3l-79.05 262.26c-50.26,-34.24 -101.62,-60.46 -153.71,-78.31 -52.09,-17.85 -103.81,-26.59 -155.9,-26.59 -43.35,0 -76.13,6.92 -98.35,20.4 -22.22,13.48 -33.15,33.15 -33.15,58.65 0,38.25 49.9,70.66 149.7,97.25 22.95,6.2 40.07,10.93 51.36,13.84 131.49,37.52 222.92,81.96 274.64,132.59 51.36,51 77.22,119.84 77.22,206.53 0,110.01 -42.25,199.25 -127.12,267 -84.51,68.11 -196.7,101.99 -335.84,101.99 -94.71,0 -182.49,-10.93 -263.72,-32.42 -81.23,-21.86 -157.36,-54.64 -228.39,-98.71z"/>
  <polygon id="6" class="fil1" points="6054.38,1945.37 6054.38,1136.73 5892.66,1136.73 5892.66,867.92 6054.38,867.92 6054.38,546.65 6428.11,546.65 6428.11,867.92 6589.83,867.92 6589.83,1136.73 6428.11,1136.73 6428.11,1945.37 "/>
  <path id="7" class="fil1" d="M6587.1 531.35c0,-57.55 20.4,-106.36 61.56,-146.79 40.8,-40.43 89.97,-60.83 147.89,-60.83 59.74,0 109.64,20.03 149.7,59.74 40.43,39.7 60.47,88.88 60.47,147.88 0,59.01 -20.4,108.91 -61.56,150.07 -40.8,41.16 -90.33,61.92 -148.61,61.92 -57.19,0 -106.36,-21.13 -147.52,-63.02 -41.16,-41.89 -61.92,-91.42 -61.92,-148.98zm19.67 1414.02l0 -1077.45 380.28 0 0 1077.45 -380.28 0z"/>
  <polygon id="8" class="fil1" points="7165.71,1945.37 7165.71,1136.73 7003.98,1136.73 7003.98,867.92 7165.71,867.92 7165.71,546.65 7539.43,546.65 7539.43,867.92 7701.16,867.92 7701.16,1136.73 7539.43,1136.73 7539.43,1945.37 "/>
  <path id="9" class="fil1" d="M8813.03 867.92l0 550.02c0,121.66 -9.83,212 -29.5,270.64 -19.3,58.64 -52.45,110.73 -98.71,156.26 -47.71,47.72 -107.09,83.41 -178.12,106.72 -71.39,23.68 -154.81,35.33 -250.97,35.33 -95.43,0 -178.48,-11.66 -249.15,-35.33 -71.03,-23.31 -131.13,-59.01 -181.03,-106.72 -46.26,-44.07 -79.04,-95.8 -98.35,-155.17 -19.31,-59.37 -28.78,-150.07 -28.78,-271.73l0 -550.02 362.79 0 0 574.79c0,89.97 14.93,155.17 44.8,195.6 29.87,40.07 78.31,60.1 145.33,60.1 67.75,0 116.2,-19.67 145.7,-59.01 29.5,-39.7 44.44,-105.27 44.44,-196.7l0 -574.79 371.53 0z"/>
  <polygon id="10" class="fil1" points="8973.85,1945.37 8973.85,1136.73 8812.12,1136.73 8812.12,867.92 8973.85,867.92 8973.85,546.65 9347.57,546.65 9347.57,867.92 9509.3,867.92 9509.3,1136.73 9347.57,1136.73 9347.57,1945.37 "/>
  <path id="11" class="fil1" d="M10258.38 1267.86c-7.29,-61.19 -30.6,-110.37 -69.94,-147.52 -39.71,-37.15 -88.15,-55.73 -146.07,-55.73 -61.92,0 -111.46,16.75 -148.25,50.63 -36.43,33.87 -60.83,84.87 -73.21,152.62l437.46 0zm373.72 214.18l-819.56 0c0.73,83.05 22.22,147.16 64.11,192.32 42.25,45.17 101.62,67.75 178.48,67.75 57.92,0 106.36,-10.93 146.06,-32.42 39.34,-21.86 69.57,-53.91 90.33,-96.53l285.94 115.1c-34.24,82.69 -94.71,146.43 -181.4,191.23 -87.06,44.8 -193.42,67.39 -319.45,67.39 -187.95,0 -338.75,-52.09 -452.03,-156.26 -113.65,-104.54 -170.47,-241.86 -170.47,-412.7 0,-167.92 56.82,-307.43 170.11,-418.52 113.65,-111.1 257.16,-166.46 430.54,-166.46 178.48,0 319.45,56.09 422.53,168.65 103.08,112.55 154.81,266.63 154.81,462.23l0 18.21z"/>
  <path class="fil2" d="M10529.2 463.39c-238.24,-95.52 -523.05,-57.87 -523.05,-57.87l-78.7 196.97c0,0 230.53,19.97 491.86,144.95 261.37,124.96 452.11,247.62 452.11,247.62l85.42 -213.71c0,0 -189.36,-222.72 -427.64,-317.96z"/>
  <path class="fil2" d="M11246.75 776.9c-8.97,22 -33.74,32.94 -56.02,24 -21.96,-8.62 -32.6,-33.73 -23.95,-55.72 8.99,-22.28 34.07,-32.87 56.02,-23.97 21.96,8.64 32.59,33.71 23.95,55.69zm18.99 -114.83c-1.19,3.24 -4.71,12.1 -9.81,24.93l-38.84 -47.55c23.12,-5.05 61.19,-8.85 48.64,22.62zm95.77 153.98l-73.65 -89.71 10.16 -24.91c0,0 80.23,-124.12 -99.05,-114.02 -9.13,1.19 -14.95,3.51 -18.51,7.02l-484.81 -594.43 -1005.86 140.92 253 264.31 18.41 -45.58c0,0 317.55,-42.04 583.36,64.09 265.78,106.5 476.77,354.99 476.77,354.99l-31.75 79.6 207.23 -23.61c-42.69,106.53 -91.63,228.79 -106.54,266.81l-57.05 -22.76 -52.51 131.83 96.51 -21.94 62.81 85.26 52.82 -131.62 -61.27 -24.31 115.17 -288.7 114.74 -13.24z"/>
 </g>
</svg>
